<svg width="76" height="76" viewBox="0 0 76 76" fill="none" xmlns="http://www.w3.org/2000/svg">
<path d="M24.1043 9.5C18.512 9.5 13.2497 11.686 9.29769 15.6602C1.14035 23.8523 1.14035 37.1802 9.29769 45.3724L32.7941 68.9678C33.2564 69.4364 33.8652 69.6667 34.4764 69.6667C35.0812 69.6667 35.684 69.4363 36.1463 68.974C37.0742 68.0493 37.0834 66.5466 36.1587 65.6156L12.6623 42.0202C6.34477 35.6773 6.34477 25.3552 12.6623 19.0124C15.7213 15.9407 19.785 14.25 24.1043 14.25C27.9993 14.25 31.6865 15.6258 34.6125 18.1465L26.4422 26.3538C25.8881 26.9112 25.644 27.7058 25.7928 28.4753C25.8403 28.7128 26.9856 34.252 35.0701 34.252C37.7396 34.252 40.9363 32.1361 42.925 30.5781L60.4653 48.2546C60.9118 48.7042 61.5113 48.9596 62.1414 48.9596H62.1476C62.7778 48.9596 63.3866 48.7042 63.8299 48.2546L66.7059 45.3724C74.8664 37.1802 74.8632 23.8523 66.7059 15.6602C62.7507 11.686 57.4916 9.5 51.8992 9.5C46.7217 9.5 41.8335 11.3741 38.0018 14.8005C34.167 11.3741 29.2818 9.5 24.1043 9.5ZM43.9888 41.8717C43.3808 41.8717 42.772 42.1037 42.3065 42.5645C41.3786 43.4891 41.3756 44.995 42.3003 45.9229L52.4188 56.0846C52.8811 56.5501 53.4931 56.7835 54.1011 56.7835C54.7059 56.7835 55.3148 56.5532 55.7772 56.0908C56.705 55.1662 56.708 53.6541 55.7834 52.7262L45.6649 42.5706C45.2025 42.1036 44.5968 41.8717 43.9888 41.8717ZM34.229 48.3659C33.621 48.3651 33.0122 48.5963 32.5467 49.0586C31.6189 49.9833 31.6159 51.4922 32.5405 52.4232L42.7023 62.6283C43.1646 63.0938 43.7766 63.3271 44.3846 63.3271C44.9894 63.3271 45.5984 63.0968 46.0607 62.6344C46.9885 61.7098 46.9916 60.207 46.0669 59.276L35.9051 49.0648C35.4428 48.5993 34.837 48.3667 34.229 48.3659Z" fill="#2A0B38"/>
</svg>
